<?xml version="1.0" encoding="UTF-8" standalone="no"?>
<svg width="92px" height="75px" viewBox="0 0 92 75" version="1.1" xmlns="http://www.w3.org/2000/svg" xmlns:xlink="http://www.w3.org/1999/xlink">
    <!-- Generator: Sketch 43.2 (39069) - http://www.bohemiancoding.com/sketch -->
    <title>bear-white</title>
    <desc>Created with Sketch.</desc>
    <defs></defs>
    <g id="Page-1" stroke="none" stroke-width="1" fill="none" fill-rule="evenodd">
        <g id="bear-white" fill="#FFFFFF">
            <g id="bear.svg" transform="translate(1.000000, 0.000000)">
                <path d="M47,47.9487497 C47.9703519,48.1243602 49.5076206,48.6935985 49.5076206,48.6935985 C55.3079603,50.4957807 60,47.0751376 60,41.0000119 L60,29.9999881 C60,23.9226046 55.0745044,19 48.9985976,19 L44.0014024,19 C37.9208211,19 33,23.9248624 33,29.9999881 L33,41.0000119 C33,47.0773954 37.695968,50.52843 43.488738,48.7131565 C43.488738,48.7131565 45.0084316,48.1574038 46,47.963544 L46,39.9026725 C43.0093779,39.2408053 38.8236532,29.4050492 40.3096222,25.9377882 C41.8476502,22.3490561 50.8932143,22.6328365 52.3096222,25.9377882 C53.6206132,28.9967673 49.9346998,38.386755 47,39.7675194 L47,47.9487497 Z M17.0299739,3.88807057 C24.6727976,0.51007386 34.8399019,0.3515625 46,0.3515625 C56.0478766,0.3515625 65.2908215,0.673926498 72.6112628,3.30654764 C74.3438632,1.86618446 76.5707775,1 79,1 C84.5228475,1 89,5.4771525 89,11 C89,13.3640039 88.179701,15.5364168 86.8082157,17.2481259 C88.2300685,21.1836857 89,26.0310064 89,32 C89,61.8476562 53.9130859,75 46,75 C38.0869141,75 3,62.9306641 3,32 C3,27.0294139 3.49717246,22.8390692 4.43028203,19.3065591 C1.75826156,17.5113719 0,14.4610179 0,11 C0,5.4771525 4.4771525,1 10,1 C12.7405796,1 15.2236673,2.10245441 17.0299707,3.88807107 Z M26.5,32 C28.4329966,32 30,30.4329966 30,28.5 C30,26.5670034 28.4329966,25 26.5,25 C24.5670034,25 23,26.5670034 23,28.5 C23,30.4329966 24.5670034,32 26.5,32 Z M65.5,32 C67.4329966,32 69,30.4329966 69,28.5 C69,26.5670034 67.4329966,25 65.5,25 C63.5670034,25 62,26.5670034 62,28.5 C62,30.4329966 63.5670034,32 65.5,32 Z" id="muzzle"></path>
            </g>
        </g>
    </g>
</svg>